<mxfile host="Electron" agent="Mozilla/5.0 (Windows NT 10.0; Win64; x64) AppleWebKit/537.36 (KHTML, like Gecko) draw.io/26.0.4 Chrome/128.0.6613.186 Electron/32.2.5 Safari/537.36" version="26.0.4">
  <diagram name="Seite-1" id="F4xT598CSBR7X-PaUnEJ">
    <mxGraphModel dx="2270" dy="984" grid="1" gridSize="10" guides="1" tooltips="1" connect="1" arrows="1" fold="1" page="1" pageScale="1" pageWidth="583" pageHeight="827" math="0" shadow="0">
      <root>
        <mxCell id="0" />
        <mxCell id="1" parent="0" />
        <mxCell id="RmuY_R9IjGEwW2GP8zIt-1" value="&lt;h1 style=&quot;margin-top: 0px;&quot;&gt;Verification Framework&lt;/h1&gt;&lt;p&gt;Verification: Ensuring the model is technically correct = stakeholder needs.&lt;/p&gt;&lt;p&gt;Validation: Analyzing the accuracy metrics of the model to ensure that it accurately reflects the real world.&lt;/p&gt;" style="text;html=1;whiteSpace=wrap;overflow=hidden;rounded=0;" parent="1" vertex="1">
          <mxGeometry x="30" y="10" width="180" height="200" as="geometry" />
        </mxCell>
        <mxCell id="RmuY_R9IjGEwW2GP8zIt-108" style="edgeStyle=orthogonalEdgeStyle;rounded=0;orthogonalLoop=1;jettySize=auto;html=1;" parent="1" source="RmuY_R9IjGEwW2GP8zIt-48" edge="1">
          <mxGeometry relative="1" as="geometry">
            <mxPoint x="759.9999999999995" y="305" as="targetPoint" />
          </mxGeometry>
        </mxCell>
        <mxCell id="RmuY_R9IjGEwW2GP8zIt-48" value="Adaption of Model Parameters" style="sketch=0;verticalLabelPosition=bottom;sketch=0;aspect=fixed;html=1;verticalAlign=top;strokeColor=none;fillColor=#000000;align=center;outlineConnect=0;pointerEvents=1;shape=mxgraph.citrix2.authentication_adaptive;" parent="1" vertex="1">
          <mxGeometry x="870" y="280" width="50" height="50" as="geometry" />
        </mxCell>
        <mxCell id="RmuY_R9IjGEwW2GP8zIt-60" value="Online Productive System" style="swimlane;whiteSpace=wrap;html=1;" parent="1" vertex="1">
          <mxGeometry x="110" y="230" width="640" height="390" as="geometry" />
        </mxCell>
        <mxCell id="RmuY_R9IjGEwW2GP8zIt-66" value="Data Lake" style="shape=datastore;whiteSpace=wrap;html=1;" parent="RmuY_R9IjGEwW2GP8zIt-60" vertex="1">
          <mxGeometry x="290" y="310" width="60" height="60" as="geometry" />
        </mxCell>
        <mxCell id="RmuY_R9IjGEwW2GP8zIt-52" value="Modelled Entity" style="html=1;dashed=0;whiteSpace=wrap;" parent="RmuY_R9IjGEwW2GP8zIt-60" vertex="1">
          <mxGeometry x="150" y="55" width="100" height="50" as="geometry" />
        </mxCell>
        <mxCell id="RmuY_R9IjGEwW2GP8zIt-94" style="edgeStyle=orthogonalEdgeStyle;rounded=0;orthogonalLoop=1;jettySize=auto;html=1;" parent="RmuY_R9IjGEwW2GP8zIt-60" source="RmuY_R9IjGEwW2GP8zIt-53" edge="1">
          <mxGeometry relative="1" as="geometry">
            <mxPoint x="320" y="320" as="targetPoint" />
          </mxGeometry>
        </mxCell>
        <mxCell id="RmuY_R9IjGEwW2GP8zIt-53" value="Real-Time Process Data" style="strokeWidth=2;html=1;shape=mxgraph.flowchart.direct_data;whiteSpace=wrap;rotation=90;labelPosition=center;verticalLabelPosition=bottom;align=center;verticalAlign=top;labelBorderColor=default;horizontal=0;" parent="RmuY_R9IjGEwW2GP8zIt-60" vertex="1">
          <mxGeometry x="285" y="184" width="70" height="60" as="geometry" />
        </mxCell>
        <mxCell id="RmuY_R9IjGEwW2GP8zIt-59" value="SBDT" style="shape=folder;fontStyle=1;tabWidth=110;tabHeight=30;tabPosition=left;html=1;boundedLbl=1;folderSymbol=triangle;whiteSpace=wrap;strokeWidth=2;" parent="RmuY_R9IjGEwW2GP8zIt-60" vertex="1">
          <mxGeometry x="390" y="50" width="120" height="60" as="geometry" />
        </mxCell>
        <mxCell id="RmuY_R9IjGEwW2GP8zIt-102" style="edgeStyle=orthogonalEdgeStyle;rounded=0;orthogonalLoop=1;jettySize=auto;html=1;" parent="RmuY_R9IjGEwW2GP8zIt-60" source="RmuY_R9IjGEwW2GP8zIt-95" edge="1">
          <mxGeometry relative="1" as="geometry">
            <mxPoint x="320" y="170" as="targetPoint" />
          </mxGeometry>
        </mxCell>
        <mxCell id="RmuY_R9IjGEwW2GP8zIt-95" value="Data Flow" style="shape=doubleArrow;whiteSpace=wrap;html=1;" parent="RmuY_R9IjGEwW2GP8zIt-60" vertex="1">
          <mxGeometry x="270" y="50" width="100" height="60" as="geometry" />
        </mxCell>
        <mxCell id="RmuY_R9IjGEwW2GP8zIt-69" value="Standardized Data Format" style="shape=table;startSize=30;container=1;collapsible=1;childLayout=tableLayout;fixedRows=1;rowLines=0;fontStyle=1;align=center;resizeLast=1;html=1;" parent="1" vertex="1">
          <mxGeometry x="350" y="685" width="160" height="150" as="geometry" />
        </mxCell>
        <mxCell id="RmuY_R9IjGEwW2GP8zIt-70" value="" style="shape=tableRow;horizontal=0;startSize=0;swimlaneHead=0;swimlaneBody=0;fillColor=none;collapsible=0;dropTarget=0;points=[[0,0.5],[1,0.5]];portConstraint=eastwest;top=0;left=0;right=0;bottom=1;" parent="RmuY_R9IjGEwW2GP8zIt-69" vertex="1">
          <mxGeometry y="30" width="160" height="30" as="geometry" />
        </mxCell>
        <mxCell id="RmuY_R9IjGEwW2GP8zIt-71" value="PK" style="shape=partialRectangle;connectable=0;fillColor=none;top=0;left=0;bottom=0;right=0;fontStyle=1;overflow=hidden;whiteSpace=wrap;html=1;" parent="RmuY_R9IjGEwW2GP8zIt-70" vertex="1">
          <mxGeometry width="30" height="30" as="geometry">
            <mxRectangle width="30" height="30" as="alternateBounds" />
          </mxGeometry>
        </mxCell>
        <mxCell id="RmuY_R9IjGEwW2GP8zIt-72" value="UniqueID" style="shape=partialRectangle;connectable=0;fillColor=none;top=0;left=0;bottom=0;right=0;align=left;spacingLeft=6;fontStyle=5;overflow=hidden;whiteSpace=wrap;html=1;" parent="RmuY_R9IjGEwW2GP8zIt-70" vertex="1">
          <mxGeometry x="30" width="130" height="30" as="geometry">
            <mxRectangle width="130" height="30" as="alternateBounds" />
          </mxGeometry>
        </mxCell>
        <mxCell id="RmuY_R9IjGEwW2GP8zIt-73" value="" style="shape=tableRow;horizontal=0;startSize=0;swimlaneHead=0;swimlaneBody=0;fillColor=none;collapsible=0;dropTarget=0;points=[[0,0.5],[1,0.5]];portConstraint=eastwest;top=0;left=0;right=0;bottom=0;" parent="RmuY_R9IjGEwW2GP8zIt-69" vertex="1">
          <mxGeometry y="60" width="160" height="30" as="geometry" />
        </mxCell>
        <mxCell id="RmuY_R9IjGEwW2GP8zIt-74" value="" style="shape=partialRectangle;connectable=0;fillColor=none;top=0;left=0;bottom=0;right=0;editable=1;overflow=hidden;whiteSpace=wrap;html=1;" parent="RmuY_R9IjGEwW2GP8zIt-73" vertex="1">
          <mxGeometry width="30" height="30" as="geometry">
            <mxRectangle width="30" height="30" as="alternateBounds" />
          </mxGeometry>
        </mxCell>
        <mxCell id="RmuY_R9IjGEwW2GP8zIt-75" value="Process ID" style="shape=partialRectangle;connectable=0;fillColor=none;top=0;left=0;bottom=0;right=0;align=left;spacingLeft=6;overflow=hidden;whiteSpace=wrap;html=1;" parent="RmuY_R9IjGEwW2GP8zIt-73" vertex="1">
          <mxGeometry x="30" width="130" height="30" as="geometry">
            <mxRectangle width="130" height="30" as="alternateBounds" />
          </mxGeometry>
        </mxCell>
        <mxCell id="RmuY_R9IjGEwW2GP8zIt-76" value="" style="shape=tableRow;horizontal=0;startSize=0;swimlaneHead=0;swimlaneBody=0;fillColor=none;collapsible=0;dropTarget=0;points=[[0,0.5],[1,0.5]];portConstraint=eastwest;top=0;left=0;right=0;bottom=0;" parent="RmuY_R9IjGEwW2GP8zIt-69" vertex="1">
          <mxGeometry y="90" width="160" height="30" as="geometry" />
        </mxCell>
        <mxCell id="RmuY_R9IjGEwW2GP8zIt-77" value="" style="shape=partialRectangle;connectable=0;fillColor=none;top=0;left=0;bottom=0;right=0;editable=1;overflow=hidden;whiteSpace=wrap;html=1;" parent="RmuY_R9IjGEwW2GP8zIt-76" vertex="1">
          <mxGeometry width="30" height="30" as="geometry">
            <mxRectangle width="30" height="30" as="alternateBounds" />
          </mxGeometry>
        </mxCell>
        <mxCell id="RmuY_R9IjGEwW2GP8zIt-78" value="Resource ID" style="shape=partialRectangle;connectable=0;fillColor=none;top=0;left=0;bottom=0;right=0;align=left;spacingLeft=6;overflow=hidden;whiteSpace=wrap;html=1;" parent="RmuY_R9IjGEwW2GP8zIt-76" vertex="1">
          <mxGeometry x="30" width="130" height="30" as="geometry">
            <mxRectangle width="130" height="30" as="alternateBounds" />
          </mxGeometry>
        </mxCell>
        <mxCell id="RmuY_R9IjGEwW2GP8zIt-79" value="" style="shape=tableRow;horizontal=0;startSize=0;swimlaneHead=0;swimlaneBody=0;fillColor=none;collapsible=0;dropTarget=0;points=[[0,0.5],[1,0.5]];portConstraint=eastwest;top=0;left=0;right=0;bottom=0;" parent="RmuY_R9IjGEwW2GP8zIt-69" vertex="1">
          <mxGeometry y="120" width="160" height="30" as="geometry" />
        </mxCell>
        <mxCell id="RmuY_R9IjGEwW2GP8zIt-80" value="" style="shape=partialRectangle;connectable=0;fillColor=none;top=0;left=0;bottom=0;right=0;editable=1;overflow=hidden;whiteSpace=wrap;html=1;" parent="RmuY_R9IjGEwW2GP8zIt-79" vertex="1">
          <mxGeometry width="30" height="30" as="geometry">
            <mxRectangle width="30" height="30" as="alternateBounds" />
          </mxGeometry>
        </mxCell>
        <mxCell id="RmuY_R9IjGEwW2GP8zIt-81" value="Order ID" style="shape=partialRectangle;connectable=0;fillColor=none;top=0;left=0;bottom=0;right=0;align=left;spacingLeft=6;overflow=hidden;whiteSpace=wrap;html=1;" parent="RmuY_R9IjGEwW2GP8zIt-79" vertex="1">
          <mxGeometry x="30" width="130" height="30" as="geometry">
            <mxRectangle width="130" height="30" as="alternateBounds" />
          </mxGeometry>
        </mxCell>
        <mxCell id="RmuY_R9IjGEwW2GP8zIt-87" value="Verification Activities" style="swimlane;whiteSpace=wrap;html=1;" parent="1" vertex="1">
          <mxGeometry x="110" y="640" width="200" height="240" as="geometry">
            <mxRectangle x="110" y="640" width="150" height="30" as="alternateBounds" />
          </mxGeometry>
        </mxCell>
        <mxCell id="RmuY_R9IjGEwW2GP8zIt-32" value="Trace Analysis" style="shape=step;perimeter=stepPerimeter;whiteSpace=wrap;html=1;fixedSize=1;fillColor=#f8cecc;strokeColor=#b85450;" parent="RmuY_R9IjGEwW2GP8zIt-87" vertex="1">
          <mxGeometry x="22" y="40" width="160" height="40" as="geometry" />
        </mxCell>
        <mxCell id="RmuY_R9IjGEwW2GP8zIt-33" value="Expert Analysis" style="shape=step;perimeter=stepPerimeter;whiteSpace=wrap;html=1;fixedSize=1;fillColor=#f8cecc;strokeColor=#b85450;" parent="RmuY_R9IjGEwW2GP8zIt-87" vertex="1">
          <mxGeometry x="22" y="90" width="160" height="40" as="geometry" />
        </mxCell>
        <mxCell id="RmuY_R9IjGEwW2GP8zIt-34" value="Stuctural Verification" style="shape=step;perimeter=stepPerimeter;whiteSpace=wrap;html=1;fixedSize=1;fillColor=#f8cecc;strokeColor=#b85450;" parent="RmuY_R9IjGEwW2GP8zIt-87" vertex="1">
          <mxGeometry x="22" y="140" width="160" height="40" as="geometry" />
        </mxCell>
        <mxCell id="RmuY_R9IjGEwW2GP8zIt-35" value="Process Logic" style="shape=step;perimeter=stepPerimeter;whiteSpace=wrap;html=1;fixedSize=1;fillColor=#f8cecc;strokeColor=#b85450;" parent="RmuY_R9IjGEwW2GP8zIt-87" vertex="1">
          <mxGeometry x="22" y="190" width="160" height="40" as="geometry" />
        </mxCell>
        <mxCell id="RmuY_R9IjGEwW2GP8zIt-88" value="Validation Activities" style="swimlane;whiteSpace=wrap;html=1;" parent="1" vertex="1">
          <mxGeometry x="550" y="640" width="200" height="240" as="geometry" />
        </mxCell>
        <mxCell id="RmuY_R9IjGEwW2GP8zIt-36" value="KPI Validation" style="shape=step;perimeter=stepPerimeter;whiteSpace=wrap;html=1;fixedSize=1;fillColor=#f8cecc;strokeColor=#b85450;" parent="RmuY_R9IjGEwW2GP8zIt-88" vertex="1">
          <mxGeometry x="20" y="40" width="160" height="40" as="geometry" />
        </mxCell>
        <mxCell id="RmuY_R9IjGEwW2GP8zIt-37" value="External Data" style="shape=step;perimeter=stepPerimeter;whiteSpace=wrap;html=1;fixedSize=1;fillColor=#f8cecc;strokeColor=#b85450;" parent="RmuY_R9IjGEwW2GP8zIt-88" vertex="1">
          <mxGeometry x="20" y="90" width="160" height="40" as="geometry" />
        </mxCell>
        <mxCell id="RmuY_R9IjGEwW2GP8zIt-116" value="Scenario Based" style="shape=step;perimeter=stepPerimeter;whiteSpace=wrap;html=1;fixedSize=1;fillColor=#f8cecc;strokeColor=#b85450;" parent="RmuY_R9IjGEwW2GP8zIt-88" vertex="1">
          <mxGeometry x="20" y="140" width="160" height="40" as="geometry" />
        </mxCell>
        <mxCell id="iEQqnoIm70HSfcB85q6z-16" value="Concept Drift Detection" style="shape=step;perimeter=stepPerimeter;whiteSpace=wrap;html=1;fixedSize=1;fillColor=#fff2cc;strokeColor=#d6b656;" vertex="1" parent="RmuY_R9IjGEwW2GP8zIt-88">
          <mxGeometry x="20" y="190" width="160" height="40" as="geometry" />
        </mxCell>
        <mxCell id="RmuY_R9IjGEwW2GP8zIt-96" value="Provides Views" style="edgeStyle=orthogonalEdgeStyle;rounded=0;orthogonalLoop=1;jettySize=auto;html=1;entryX=0.5;entryY=0;entryDx=0;entryDy=0;" parent="1" source="RmuY_R9IjGEwW2GP8zIt-66" target="RmuY_R9IjGEwW2GP8zIt-69" edge="1">
          <mxGeometry relative="1" as="geometry" />
        </mxCell>
        <mxCell id="RmuY_R9IjGEwW2GP8zIt-97" style="edgeStyle=orthogonalEdgeStyle;rounded=0;orthogonalLoop=1;jettySize=auto;html=1;entryX=1;entryY=0.5;entryDx=0;entryDy=0;" parent="1" source="RmuY_R9IjGEwW2GP8zIt-73" target="RmuY_R9IjGEwW2GP8zIt-87" edge="1">
          <mxGeometry relative="1" as="geometry" />
        </mxCell>
        <mxCell id="RmuY_R9IjGEwW2GP8zIt-99" style="edgeStyle=orthogonalEdgeStyle;rounded=0;orthogonalLoop=1;jettySize=auto;html=1;exitX=1;exitY=0.5;exitDx=0;exitDy=0;entryX=0;entryY=0.5;entryDx=0;entryDy=0;" parent="1" source="RmuY_R9IjGEwW2GP8zIt-73" target="RmuY_R9IjGEwW2GP8zIt-88" edge="1">
          <mxGeometry relative="1" as="geometry" />
        </mxCell>
        <mxCell id="iEQqnoIm70HSfcB85q6z-1" value="Legend" style="shape=table;startSize=30;container=1;collapsible=0;childLayout=tableLayout;fontSize=16;align=left;verticalAlign=top;fontStyle=1;spacingLeft=6;spacing=0;resizable=0;" vertex="1" parent="1">
          <mxGeometry x="-100" y="230" width="180" height="90" as="geometry" />
        </mxCell>
        <mxCell id="iEQqnoIm70HSfcB85q6z-2" value="" style="shape=tableRow;horizontal=0;startSize=0;swimlaneHead=0;swimlaneBody=0;strokeColor=inherit;top=0;left=0;bottom=0;right=0;collapsible=0;dropTarget=0;fillColor=none;points=[[0,0.5],[1,0.5]];portConstraint=eastwest;fontSize=12;" vertex="1" parent="iEQqnoIm70HSfcB85q6z-1">
          <mxGeometry y="30" width="180" height="30" as="geometry" />
        </mxCell>
        <mxCell id="iEQqnoIm70HSfcB85q6z-3" value="Sanity Check on Subset" style="shape=partialRectangle;html=1;whiteSpace=wrap;connectable=0;strokeColor=#b85450;overflow=hidden;fillColor=#f8cecc;top=0;left=0;bottom=0;right=0;pointerEvents=1;fontSize=12;align=left;spacingLeft=10;spacingRight=4;" vertex="1" parent="iEQqnoIm70HSfcB85q6z-2">
          <mxGeometry width="180" height="30" as="geometry">
            <mxRectangle width="180" height="30" as="alternateBounds" />
          </mxGeometry>
        </mxCell>
        <mxCell id="iEQqnoIm70HSfcB85q6z-4" value="" style="shape=tableRow;horizontal=0;startSize=0;swimlaneHead=0;swimlaneBody=0;strokeColor=inherit;top=0;left=0;bottom=0;right=0;collapsible=0;dropTarget=0;fillColor=none;points=[[0,0.5],[1,0.5]];portConstraint=eastwest;fontSize=12;" vertex="1" parent="iEQqnoIm70HSfcB85q6z-1">
          <mxGeometry y="60" width="180" height="30" as="geometry" />
        </mxCell>
        <mxCell id="iEQqnoIm70HSfcB85q6z-5" value="+ Concurrent Validation" style="shape=partialRectangle;html=1;whiteSpace=wrap;connectable=0;strokeColor=#d6b656;overflow=hidden;fillColor=#fff2cc;top=0;left=0;bottom=0;right=0;pointerEvents=1;fontSize=12;align=left;spacingLeft=10;spacingRight=4;" vertex="1" parent="iEQqnoIm70HSfcB85q6z-4">
          <mxGeometry width="180" height="30" as="geometry">
            <mxRectangle width="180" height="30" as="alternateBounds" />
          </mxGeometry>
        </mxCell>
        <mxCell id="iEQqnoIm70HSfcB85q6z-18" value="Concurrent Feedback Loop" style="points=[[0.25,0,0],[0.5,0,0],[0.75,0,0],[1,0.25,0],[1,0.5,0],[1,0.75,0],[0.75,1,0],[0.5,1,0],[0.25,1,0],[0,0.75,0],[0,0.5,0],[0,0.25,0]];shape=mxgraph.bpmn.task;whiteSpace=wrap;rectStyle=rounded;size=10;html=1;container=1;expand=0;collapsible=0;taskMarker=abstract;isLoopStandard=1;" vertex="1" parent="1">
          <mxGeometry x="370" y="900" width="120" height="80" as="geometry" />
        </mxCell>
        <mxCell id="iEQqnoIm70HSfcB85q6z-15" value="" style="group" vertex="1" connectable="0" parent="1">
          <mxGeometry x="590" y="900" width="120" height="50" as="geometry" />
        </mxCell>
        <mxCell id="RmuY_R9IjGEwW2GP8zIt-43" value="xLSTM" style="shape=folder;fontStyle=1;tabWidth=110;tabHeight=30;tabPosition=left;html=1;boundedLbl=1;folderSymbol=triangle;whiteSpace=wrap;fillColor=#fff2cc;strokeColor=#d6b656;" parent="iEQqnoIm70HSfcB85q6z-15" vertex="1">
          <mxGeometry width="120" height="50" as="geometry" />
        </mxCell>
        <mxCell id="iEQqnoIm70HSfcB85q6z-14" value="" style="aspect=fixed;pointerEvents=1;shadow=0;dashed=0;html=1;strokeColor=none;labelPosition=center;verticalLabelPosition=bottom;verticalAlign=top;align=center;fillColor=#1A1A1A;shape=mxgraph.mscae.general.graph;strokeWidth=1;" vertex="1" parent="iEQqnoIm70HSfcB85q6z-15">
          <mxGeometry x="40" width="30" height="30" as="geometry" />
        </mxCell>
      </root>
    </mxGraphModel>
  </diagram>
</mxfile>
